<svg id="Layer_1" data-name="Layer 1" xmlns="http://www.w3.org/2000/svg" viewBox="0 0 1280.98 378"><defs><style>.cls-1{fill:#fff;}.cls-2{opacity:0.3;}.cls-10,.cls-3{fill:#000072;}.cls-4{fill:#32a6fc;}.cls-5{opacity:0.7;}.cls-6{fill:#201777;}.cls-7{fill:#ffdab6;}.cls-8{fill:#00dbff;}.cls-9{fill:#ffe448;}.cls-10{font-size:116.41px;font-family:ComicSansMS-Bold, Comic Sans MS;font-weight:700;}</style></defs><title>BABY BUCKET LOGO 1</title><path class="cls-1" d="M1869.33,1094.44s-106.91-3.71-105.06,98.87,108.15,101.35,137.81,66.74c0,0,18.85,92.7,124.52,92.7s135.34-80.65,135.34-80.65,104.74,61.18,156.65-41.71-44.49-169.32-103.82-139c0,0-64.88-103.82-160.67-34.61,0,0-26.78-16.48-55.21,12.77C1998.89,1069.51,1921.85,1007.92,1869.33,1094.44Z" transform="translate(-1760.4 -978.59)"/><g class="cls-2"><path class="cls-3" d="M1764.36,1185.43c3.67,99.85,108.32,98.35,137.72,64,0,0,18.85,92.69,124.52,92.69s135.34-80.64,135.34-80.64,104.74,61.18,156.65-41.71c9.33-18.49,13.86-35.79,14.68-51.57a89.11,89.11,0,0,0-10.1-37c1.9,18.89-1.9,40.56-13.85,64.24-39.27,77.85-109.87,58.43-138.6,46.37a15.09,15.09,0,0,0-18.84,6.24c-12.92,22-48.17,65.54-124.52,65.54-72.2,0-102.42-44.81-113.93-71a15.09,15.09,0,0,0-20.89-7.22c-39.1,20.75-116.94,10.43-118.49-75.72a124.82,124.82,0,0,1,.77-16.65C1768.9,1154.31,1765,1168.26,1764.36,1185.43Z" transform="translate(-1760.4 -978.59)"/></g><g class="cls-2"><path class="cls-3" d="M1856.07,1177.56s-3.43-47.08,98.74-39.25,296.79-65.92,309.89,25.44c0,0-78.35-34.09-114.2,53,0,0-77.24-41.4-123,13C2027.53,1229.77,1975.67,1117.3,1856.07,1177.56Z" transform="translate(-1760.4 -978.59)"/></g><path class="cls-3" d="M2026.6,1356.59c-56.15,0-88-26-104.93-47.84a133.41,133.41,0,0,1-21.57-41.27c-19.66,17.1-56.1,22.69-85.3,12.19-19.85-7.14-53.32-27.85-54.37-86.29-.56-30.61,8.29-55.11,26.28-72.8,28.41-27.95,70.22-30,80.48-30,16.13-25.75,36.1-40.89,59.4-45,33.35-5.91,62.93,12.54,72,18.91,14.83-14,29.16-16.59,38.79-16.14a44.48,44.48,0,0,1,16.45,3.93c27.93-19.6,56-26.81,83.6-21.42,43.21,8.46,71.34,45,78.74,55.61,29.83-13.4,68-5.11,94,20.79a91.27,91.27,0,0,1,26.17,52.46c3.22,22.9-1.59,47.27-14.29,72.43-15.35,30.43-36.77,49.89-63.67,57.84-41,12.14-82-6.06-94.54-12.48a132,132,0,0,1-27.23,37.7C2117.25,1334.07,2082.48,1356.59,2026.6,1356.59Zm-124.52-100.38a4,4,0,0,1,1,.12,3.86,3.86,0,0,1,2.81,3c0,.22,4.83,22.8,22.1,45,23,29.6,56.21,44.6,98.65,44.6,42.64,0,77.74-13.11,104.34-39,19.89-19.33,27.32-39,27.39-39.16a3.86,3.86,0,0,1,5.54-2c.47.28,47.36,27.12,92.35,13.79,24.76-7.34,44.59-25.48,58.94-53.91,22.2-44,18.3-87.37-10.44-116-24.61-24.49-60.87-31.86-88.2-17.91a3.84,3.84,0,0,1-5-1.39c-.28-.45-29.28-46-75.65-55-26-5.07-52.76,2.16-79.51,21.49a3.84,3.84,0,0,1-4.27.15c-1-.59-24.62-14.37-50.43,12.18a3.85,3.85,0,0,1-5.16.33c-.32-.26-32.82-25.76-68.62-19.38-21.55,3.83-40.14,18.4-55.26,43.29a3.91,3.91,0,0,1-3.42,1.85c-.59,0-47.67-1.2-77.13,27.82-16.4,16.15-24.46,38.74-23.94,67.14,1,53.83,31.3,72.72,49.29,79.19a88.92,88.92,0,0,0,47,3.14c14.84-3,27.51-9.56,34.77-18A3.85,3.85,0,0,1,1902.08,1256.21Z" transform="translate(-1760.4 -978.59)"/><path class="cls-4" d="M2238.36,1158.29c-7.69,29.74-28.65,54.25-56.39,67.43-47.59,22.59-139.12,53.26-200.87-6.2a100,100,0,0,1-26.95-44.56,93.57,93.57,0,0,1-3.57-28.11c.58-21.6,8.59-46.21,36.86-62,26.12-14.58,58-13.43,83.86,1.58,10.3,6,23.76,11.32,39.38,11.8,36.77,1.14,60.14-36.37,110,0a50.77,50.77,0,0,1,12.53,12.85C2242.73,1125.36,2242.47,1142.44,2238.36,1158.29Z" transform="translate(-1760.4 -978.59)"/><path class="cls-1" d="M2192.09,1106.28l2.35,2.59a3.56,3.56,0,0,0,4.1.87l3.2-1.43a3.56,3.56,0,0,1,4.55,5l-1.74,3a3.58,3.58,0,0,0,.44,4.17l2.35,2.6A3.57,3.57,0,0,1,2204,1129l-3.43-.72a3.55,3.55,0,0,0-3.82,1.72l-1.75,3a3.57,3.57,0,0,1-6.64-1.4l-.38-3.48a3.57,3.57,0,0,0-2.81-3.11l-3.43-.72a3.57,3.57,0,0,1-.72-6.75l3.2-1.43a3.58,3.58,0,0,0,2.09-3.64l-.38-3.48A3.57,3.57,0,0,1,2192.09,1106.28Z" transform="translate(-1760.4 -978.59)"/><path class="cls-1" d="M2046.94,1184.63l-.11,3.51a3.57,3.57,0,0,0,2.37,3.46l3.29,1.18a3.57,3.57,0,0,1-.2,6.79l-3.36,1a3.56,3.56,0,0,0-2.57,3.32l-.11,3.5a3.56,3.56,0,0,1-6.51,1.9l-2-2.89a3.58,3.58,0,0,0-4-1.42l-3.37,1a3.57,3.57,0,0,1-3.82-5.61l2.15-2.77a3.57,3.57,0,0,0,.12-4.19l-2-2.9a3.56,3.56,0,0,1,4.15-5.36l3.3,1.18a3.57,3.57,0,0,0,4-1.18l2.14-2.77A3.57,3.57,0,0,1,2046.94,1184.63Z" transform="translate(-1760.4 -978.59)"/><path class="cls-1" d="M2092.61,1109.45l.86,1.78a2,2,0,0,0,2.09,1.12l2-.27a2,2,0,0,1,1.67,3.45l-1.43,1.37a2,2,0,0,0-.42,2.33l.87,1.79a2,2,0,0,1-2.77,2.65l-1.74-.93a2,2,0,0,0-2.35.32l-1.43,1.37a2,2,0,0,1-3.38-1.81l.35-1.95a2,2,0,0,0-1-2.13l-1.74-.94a2,2,0,0,1,.67-3.77l2-.27a2,2,0,0,0,1.71-1.64l.35-2A2,2,0,0,1,2092.61,1109.45Z" transform="translate(-1760.4 -978.59)"/><path class="cls-1" d="M2163.93,1165.25l.39,1.93a2,2,0,0,0,1.75,1.61l2,.22a2,2,0,0,1,.76,3.76l-1.72,1a2,2,0,0,0-1,2.16l.4,1.94a2,2,0,0,1-3.34,1.88l-1.46-1.34a2,2,0,0,0-2.36-.27l-1.72,1a2,2,0,0,1-2.82-2.6l.82-1.8a2,2,0,0,0-.47-2.32l-1.46-1.34a2,2,0,0,1,1.6-3.48l2,.22a2,2,0,0,0,2.07-1.16l.82-1.8A2,2,0,0,1,2163.93,1165.25Z" transform="translate(-1760.4 -978.59)"/><g class="cls-2"><path class="cls-3" d="M2072.23,1077.23s17.13,18.87-10.52,63a5.27,5.27,0,0,0-.31,5.06,60.74,60.74,0,0,1,3.82,10.26,54.11,54.11,0,0,0-24.86-4.28S2077.07,1110.7,2072.23,1077.23Z" transform="translate(-1760.4 -978.59)"/></g><g class="cls-2"><path class="cls-3" d="M2238.36,1158.29c-7.69,29.74-28.65,54.25-56.39,67.43-47.59,22.59-139.12,53.26-200.87-6.2a100,100,0,0,1-26.95-44.56l52.56,6s12.58,12.7,19.26,24a5.9,5.9,0,0,0,8.41,1.87c10.78-7.34,36.45-21.58,66.9-16.14,0,0,13.69-23.77,3.19-43.45,0,0,4.83,4.52,9.26,13.87a4.9,4.9,0,0,0,9.14-.69c2.5-8.42,6.8-18,14.18-24.7,0,0-.4,4-.43,10.13-.09,19.36,22.19,30.4,37.48,18.53a75.91,75.91,0,0,1,30.4-14.31,37,37,0,0,0,28.75-38.37c0-.18,0-.37,0-.56C2242.73,1125.36,2242.47,1142.44,2238.36,1158.29Z" transform="translate(-1760.4 -978.59)"/></g><g class="cls-5"><path class="cls-1" d="M1987.44,1094.47c26.12-14.58,58-13.43,83.86,1.59,10.3,6,23.76,11.31,39.38,11.79,36.77,1.15,60.14-36.36,110,0a50.93,50.93,0,0,1,12.53,12.85,47.21,47.21,0,0,1,7.67,22.82c.83-11.27-1.06-22.53-7.67-32.43a50.77,50.77,0,0,0-12.53-12.85c-49.86-36.37-73.23,1.14-110,0-15.62-.48-29.08-5.83-39.38-11.8-25.88-15-57.74-16.16-83.86-1.58-28.27,15.78-36.28,40.39-36.86,62q-.09,3.64.1,7.26C1951.77,1133.09,1960.19,1109.68,1987.44,1094.47Z" transform="translate(-1760.4 -978.59)"/></g><path class="cls-3" d="M2143.07,1095.27c-1.13.51-2.46,1.15-3.68,1.78-.62.31-1.24.65-1.85,1s-1.23.67-1.84,1a76.2,76.2,0,0,0-7.07,4.58,47.81,47.81,0,0,0-6.27,5.53,85.76,85.76,0,0,0-5.41,6.68v0a.33.33,0,0,1-.46.06.35.35,0,0,1-.13-.27,18.78,18.78,0,0,1,2.86-8.83,45.94,45.94,0,0,1,5.75-7.34,59.22,59.22,0,0,1,6.95-6.12c1.23-.95,2.5-1.82,3.8-2.65a44.08,44.08,0,0,1,4.09-2.41,3.85,3.85,0,1,1,3.5,6.86l-.16.07Z" transform="translate(-1760.4 -978.59)"/><path class="cls-3" d="M2156,1238.21c-.85-1-1.54-1.83-2.27-2.76s-1.43-1.83-2.11-2.77c-1.37-1.86-2.65-3.78-3.93-5.7a132.44,132.44,0,0,1-7-11.93,117,117,0,0,1-9.82-25.84,87.44,87.44,0,0,1-2.45-27.59,61.14,61.14,0,0,1,2.4-13.64c.35-1.1.71-2.2,1.1-3.28s.9-2.13,1.39-3.17l.73-1.56.86-1.5c.59-1,1.19-2,1.83-2.91a.29.29,0,0,1,.53.21v0c-.19,1.13-.41,2.24-.65,3.34l-.37,1.63-.3,1.64c-.18,1.1-.44,2.16-.64,3.24s-.33,2.18-.51,3.25a88.51,88.51,0,0,0-1.22,13,74.86,74.86,0,0,0,.89,13,86.43,86.43,0,0,0,2.79,12.7,120.25,120.25,0,0,0,4.38,12.27c1.71,4,3.61,7.93,5.7,11.76s4.32,7.58,6.74,11.21c1.22,1.8,2.45,3.6,3.75,5.34l2,2.6c.65.84,1.35,1.73,2,2.46l.05,0a3.85,3.85,0,0,1-5.84,5Z" transform="translate(-1760.4 -978.59)"/><path class="cls-6" d="M2105.3,1147a25.9,25.9,0,0,1,4.3,9.31,41,41,0,0,1,1.19,10.19,60.63,60.63,0,0,1-.87,10.31c-.16.86-.37,1.7-.55,2.55l-.29,1.28-.37,1.25-.77,2.5-1,2.44c-.59,1.66-1.45,3.18-2.2,4.77-.38.79-.88,1.51-1.31,2.27s-.88,1.51-1.38,2.23l-1.55,2.12a23.25,23.25,0,0,1-1.6,2.07l-1.72,2-.86,1-.94.91a64.74,64.74,0,0,1-7.9,6.73c-1.43,1-2.82,2-4.28,2.89l-4.45,2.56a129.18,129.18,0,0,1-38.35,12.32l-4.94.79-2.47.39-2.48.29-5,.57c-1.65.19-3.3.38-5,.49a129.84,129.84,0,0,1-20.22.2,70.53,70.53,0,0,1-10.27-1.58A39.57,39.57,0,0,1,1980,1226a21.55,21.55,0,0,1-8.38-8.08,19,19,0,0,1-2.13-5.68,20.06,20.06,0,0,1-.35-3,18.83,18.83,0,0,1,0-2.91,31.91,31.91,0,0,1,2.82-10.65,53.68,53.68,0,0,1,5.22-9.12,83.71,83.71,0,0,1,13.89-15,98.52,98.52,0,0,1,35.18-19.68,68,68,0,0,1,20.18-3.09,40.32,40.32,0,0,1,10.25,1.33,20.42,20.42,0,0,1,8.95,5.12.42.42,0,0,1,0,.6.45.45,0,0,1-.34.12h0c-3.43-.34-6.5-.82-9.59-1.19a54.67,54.67,0,0,0-27.63,2.76,89.18,89.18,0,0,0-17.14,8,99.64,99.64,0,0,0-15.31,11.19,78.89,78.89,0,0,0-12.5,14,46.68,46.68,0,0,0-4.47,7.9,24.83,24.83,0,0,0-2.17,8.24,15.67,15.67,0,0,0,.24,3.9,11.65,11.65,0,0,0,1.32,3.47,14.46,14.46,0,0,0,5.65,5.28,32.56,32.56,0,0,0,8.18,3.06A64.43,64.43,0,0,0,2001,1224a122.08,122.08,0,0,0,19-.23c1.59-.11,3.19-.29,4.79-.48l4.8-.56,2.4-.28,2.37-.38,4.76-.77c12.63-2.17,25-5.73,36.16-11.46a66.25,66.25,0,0,0,15.12-10.68,46.33,46.33,0,0,0,10.56-14.8l.91-2.1.75-2.17.37-1.08.3-1.11c.19-.74.41-1.48.59-2.23a55,55,0,0,0,1.2-9.18c.12-3.11-.09-6.22-.19-9.38s-.32-6.35-.39-9.72v0a.45.45,0,0,1,.43-.45A.46.46,0,0,1,2105.3,1147Z" transform="translate(-1760.4 -978.59)"/><path class="cls-3" d="M2071.6,1257.94c-32.65,0-65.69-9.19-93.17-35.66-20.87-20.09-32.42-47.62-31.69-75.53.77-28.94,14.19-51.5,38.83-65.25h0c26.68-14.89,60.27-14.27,87.66,1.62,12.22,7.09,24.86,10.88,37.57,11.28,11.84.36,22.21-3.54,33.2-7.67,21.88-8.22,44.49-16.73,78.94,8.4,19.66,14.35,26.28,36.52,19.15,64.13-7.9,30.54-29.22,56-58.48,69.93C2155.64,1242.47,2114,1257.93,2071.6,1257.94Zm-82.29-169.73c-22.44,12.54-34.18,32.3-34.88,58.74-.68,25.76,10,51.19,29.33,69.8,25.77,24.81,57,33.47,88,33.47,40.91,0,81.43-15.08,108.59-28s47-36.57,54.33-64.91c6.37-24.64.91-43.48-16.23-56-31.09-22.69-50.82-15.27-71.7-7.42-11.21,4.21-22.79,8.58-36.15,8.15-14-.43-27.85-4.58-41.19-12.31-25.06-14.54-55.73-15.14-80.06-1.56Z" transform="translate(-1760.4 -978.59)"/><path class="cls-7" d="M2023,1010.18s13.93-14.14,30.25,1.05,13.59,36.22,7.48,43.84S2023,1010.18,2023,1010.18Z" transform="translate(-1760.4 -978.59)"/><path class="cls-3" d="M2059.16,1059.67h-.44c-3.65-.25-9.38-3.37-24.21-24.68-7.87-11.31-14.74-22.7-14.81-22.81a3.85,3.85,0,0,1,.55-4.69c5.73-5.81,20.54-13.09,35.61.93,17.41,16.2,15.7,39.3,7.86,49.07A5.73,5.73,0,0,1,2059.16,1059.67ZM2028,1011c11.25,18.32,25.15,37.52,30.43,40.58,4-6.47,6.82-23.95-7.83-37.58C2040.61,1004.73,2032,1008.32,2028,1011Z" transform="translate(-1760.4 -978.59)"/><path class="cls-7" d="M1883.37,1148.8s-14.24,13.82.82,30.25,36.13,13.85,43.79,7.8S1883.37,1148.8,1883.37,1148.8Z" transform="translate(-1760.4 -978.59)"/><path class="cls-3" d="M1911.85,1195.41a41.18,41.18,0,0,1-30.49-13.76c-13.92-15.17-6.52-29.93-.67-35.61a3.85,3.85,0,0,1,4.69-.52c.11.07,11.45,7,22.7,15,21.2,15,24.28,20.74,24.5,24.39a5.78,5.78,0,0,1-2.21,5C1926.12,1193.22,1919.41,1195.41,1911.85,1195.41Zm-27.66-41.58c-2.75,4-6.4,12.54,2.84,22.62,13.52,14.75,31,12.06,37.52,8.11C1921.52,1179.25,1902.43,1165.22,1884.19,1153.83Z" transform="translate(-1760.4 -978.59)"/><path class="cls-7" d="M2032.51,1159.41s-77.84,82-125.93,16.07c0,0-42.4-29.93-49.5-74.24-3.95-24.57,3-53.56,34-84.35,86.9-86.27,158.46,16.69,158.46,16.69,12.71,9.4,19.86,19.89,23.12,30.68C2086.23,1109.18,2032.51,1159.41,2032.51,1159.41Z" transform="translate(-1760.4 -978.59)"/><g class="cls-2"><path class="cls-3" d="M2032.51,1159.41s-77.84,82-125.93,16.07c0,0-42.4-29.93-49.5-74.24,1.08,1.57,59.9,86.88,165.36,33.18,34.38-17.5,47.79-43.28,50.18-70.16C2086.23,1109.18,2032.51,1159.41,2032.51,1159.41Z" transform="translate(-1760.4 -978.59)"/></g><g class="cls-5"><path class="cls-1" d="M2072.62,1064.26c-3.26-10.79-10.41-21.28-23.12-30.68,0,0-71.56-103-158.46-16.69-19.88,19.75-29.85,38.75-33.4,56.33,5-14.54,14.56-29.91,30.52-45.75,22.1-21.94,43.21-31.64,62.4-33.91a4.5,4.5,0,0,1,3.82,1.31c3.52,3.7,11.51,7.57,21.25,9.88,10.22,2.43,19.5,2.47,24.11.46a4.41,4.41,0,0,1,3.92.26c23.42,13.33,38.91,33.19,42.27,37.74a8.61,8.61,0,0,0,1.7,1.71c12.08,9.2,18.93,19.42,22.11,29.91a56.89,56.89,0,0,1,.92,27.81C2074.91,1090.27,2076.5,1077.05,2072.62,1064.26Z" transform="translate(-1760.4 -978.59)"/></g><path class="cls-3" d="M2009.73,1045.53a23.26,23.26,0,0,1-.76,12.36,28,28,0,0,1-6.54,10.9c-.73.78-1.55,1.49-2.35,2.19s-1.69,1.33-2.59,1.9-1.83,1.1-2.76,1.61a29.72,29.72,0,0,1-2.91,1.26,27.39,27.39,0,0,1-12.21,1.74.29.29,0,0,1-.25-.3.27.27,0,0,1,.15-.22c3.58-2,7-3.73,10.06-5.75.39-.24.77-.5,1.14-.77l1.13-.77c.71-.58,1.48-1,2.15-1.65a38.63,38.63,0,0,0,4-3.59,44.94,44.94,0,0,0,6.54-8.54,68.78,68.78,0,0,0,5-10.37h0a.11.11,0,0,1,.16-.07A.14.14,0,0,1,2009.73,1045.53Z" transform="translate(-1760.4 -978.59)"/><path class="cls-3" d="M1918.81,1135.56a68.65,68.65,0,0,0,10.41-4.93,45.33,45.33,0,0,0,8.59-6.48,39.78,39.78,0,0,0,3.61-3.94c.61-.67,1.09-1.43,1.67-2.13l.78-1.13a11.37,11.37,0,0,0,.77-1.14c2-3.08,3.84-6.44,5.83-10a.27.27,0,0,1,.38-.11.28.28,0,0,1,.14.21,27.37,27.37,0,0,1-1.83,12.2,28.7,28.7,0,0,1-1.28,2.9,29.08,29.08,0,0,1-1.63,2.74,30.16,30.16,0,0,1-1.91,2.58c-.72.8-1.43,1.61-2.22,2.34a27.82,27.82,0,0,1-10.95,6.46,23.24,23.24,0,0,1-12.36.67.12.12,0,0,1-.08-.15.1.1,0,0,1,.07-.08Z" transform="translate(-1760.4 -978.59)"/><path class="cls-3" d="M1988.1,1098.37a58.22,58.22,0,0,0-5.61,2.36,17.09,17.09,0,0,0-4.32,2.94,15.26,15.26,0,0,0-2.87,4.1c-.79,1.62-1.42,3.49-2.24,5.6a.2.2,0,0,1-.26.11.15.15,0,0,1-.1-.09,10.88,10.88,0,0,1,2.3-13.11,12.21,12.21,0,0,1,6.47-3,12,12,0,0,1,6.65.85.13.13,0,0,1,.06.16s0,0-.07.06Z" transform="translate(-1760.4 -978.59)"/><path class="cls-3" d="M1952.78,1205c-1.31,0-2.61,0-3.91-.13-17.67-1.14-32.82-10.1-45-26.62-5.47-4-47.42-36.06-51.32-82.68-2.35-28.08,9.7-55.46,35.82-81.4s53.59-37.79,81.66-35.22c46.58,4.24,78.35,46.42,82.3,51.92,16.43,12.34,25.28,27.55,26.29,45.23,2.42,42.19-40.53,83.38-43.35,86.05C2032.63,1164.85,1993.58,1205,1952.78,1205Zm9.8-218.7c-23.41,0-46.53,11.19-68.83,33.33-24.44,24.26-35.73,49.59-33.58,75.3,3.79,45.28,48.17,77.1,48.62,77.42a3.87,3.87,0,0,1,.89.87c10.87,14.91,24.21,23,39.66,24,39.06,2.53,80-40,80.39-40.43l.16-.16c.43-.41,43.27-41,41-80.09-.89-15.46-8.86-28.86-23.68-39.84a3.87,3.87,0,0,1-.87-.89c-.32-.45-31.92-45.1-77.11-49.19Q1965.91,986.29,1962.58,986.29Z" transform="translate(-1760.4 -978.59)"/><circle class="cls-8" cx="247.31" cy="155.83" r="29.33"/><g class="cls-2"><path class="cls-3" d="M2034.11,1121.64a29.33,29.33,0,0,1-55.68,11.14,29.33,29.33,0,1,0,55.68-11.14Z" transform="translate(-1760.4 -978.59)"/></g><g class="cls-5"><path class="cls-1" d="M1988,1121.3a29.33,29.33,0,0,1,49,13.36,29.33,29.33,0,1,0-57.69,7.21A29.23,29.23,0,0,1,1988,1121.3Z" transform="translate(-1760.4 -978.59)"/></g><path class="cls-3" d="M2007.71,1166.48a32.06,32.06,0,1,1,22.6-9.3A32,32,0,0,1,2007.71,1166.48Zm0-58.63a26.57,26.57,0,1,0,18.87,7.84A26.51,26.51,0,0,0,2007.71,1107.85Z" transform="translate(-1760.4 -978.59)"/><path class="cls-3" d="M2022.44,1174.17a24.87,24.87,0,0,1-17.7-7.35h0a24.94,24.94,0,0,1,17.69-42.5h.1a24.93,24.93,0,0,1-.09,49.85Zm0-45.46a20.53,20.53,0,0,0-14.57,35h0a20.54,20.54,0,1,0,14.65-35Z" transform="translate(-1760.4 -978.59)"/><circle class="cls-9" cx="247.31" cy="155.83" r="12.77"/><g class="cls-2"><path class="cls-3" d="M2017.57,1126.32a12.75,12.75,0,0,1-21.8,9.4c-.29-.29-.55-.59-.8-.89a12.76,12.76,0,1,0,22.6-8.51Z" transform="translate(-1760.4 -978.59)"/></g><path class="cls-3" d="M2007.71,1149.93h0a15.4,15.4,0,0,1-11-4.58h0a15.5,15.5,0,1,1,11,4.58Zm-7.11-8.45a10,10,0,0,0,7.08,3h0a10,10,0,0,0,0-20h0a10,10,0,0,0-7.11,17.08Z" transform="translate(-1760.4 -978.59)"/><path class="cls-3" d="M1900.08,1030a152.05,152.05,0,0,1-13.17-8.13,101.08,101.08,0,0,1-12.29-9.73,40.25,40.25,0,0,1-5.44-6.27,19.11,19.11,0,0,1-2.15-4.13,10.47,10.47,0,0,1-.54-5.52,9.26,9.26,0,0,1,2.88-5.06,13.8,13.8,0,0,1,4.24-2.64,11.57,11.57,0,0,1,5.11-.84,12.08,12.08,0,0,1,4.88,1.41,16.7,16.7,0,0,1,6.5,6.44,17.83,17.83,0,0,1,2.52,8.61,11.92,11.92,0,0,1-.91,4.83,9.56,9.56,0,0,1-3.26,4.05,11.31,11.31,0,0,1-4.51,1.81,18.23,18.23,0,0,1-4.39.21,33.84,33.84,0,0,1-7.94-1.7,65,65,0,0,1-7.25-2.93,59.61,59.61,0,0,1-6.78-3.65,24.14,24.14,0,0,1-5.8-5.19.09.09,0,0,1,0-.12.08.08,0,0,1,.07,0,34.69,34.69,0,0,1,7.34,2.26c2.31,1,4.51,2.08,6.8,3a59.07,59.07,0,0,0,6.9,2.35,29,29,0,0,0,6.87,1.09,9.09,9.09,0,0,0,5.53-1.4,4.91,4.91,0,0,0,1.64-4.4c-.23-3.8-3-8.06-6.21-9.57a5.27,5.27,0,0,0-4.61-.11A7.45,7.45,0,0,0,1874,996a2.36,2.36,0,0,0-.77,1.4,3.87,3.87,0,0,0,.33,1.89,12.24,12.24,0,0,0,1.42,2.51,33.26,33.26,0,0,0,4.6,5c7,6.37,15.63,11.7,24.07,16.54l.09,0a3.77,3.77,0,0,1-3.69,6.58Z" transform="translate(-1760.4 -978.59)"/><path class="cls-1" d="M1855.46,1177.86c121.12-61.79,171.59,52.74,171.59,52.74,57.26-61.8,123.59-11.95,123.59-11.95,30.9-88.58,114.12-54.88,114.12-54.88s-9.45,61.06-105.87,80.83c0,0-3.81,2.82-5.5,3.3-96.57,27.28-197.43,5.3-277.72-54.89Z" transform="translate(-1760.4 -978.59)"/><path class="cls-3" d="M2027.05,1234.44a4.48,4.48,0,0,1-.64,0,3.85,3.85,0,0,1-2.88-2.24c-.21-.47-21.18-46.85-66.91-63.09-29.52-10.48-63-6.37-99.42,12.23a3.84,3.84,0,0,1-3.49-6.85c38.44-19.61,74-23.85,105.56-12.6,40.14,14.29,61.83,49.07,68.8,62.17,29.7-29.37,61.32-30.66,83-26.33a115.14,115.14,0,0,1,37.65,15c9.81-25.3,25-42.74,45.15-51.88,34.5-15.62,70.81-1.26,72.33-.64a3.84,3.84,0,0,1-2.88,7.12c-.53-.21-35-13.69-66.34.56-19.36,8.79-33.73,26.29-42.71,52a3.84,3.84,0,0,1-5.94,1.8,106.39,106.39,0,0,0-39-16.55c-30-5.9-56.72,3.54-79.42,28A3.86,3.86,0,0,1,2027.05,1234.44Z" transform="translate(-1760.4 -978.59)"/><text class="cls-10" transform="translate(632.98 222.54)">Baby<tspan class="cls-4" x="271.48" y="0">Bucket</tspan></text></svg>